<svg xmlns="http://www.w3.org/2000/svg" width="18" height="24" viewBox="0 0 18 24">
    <g fill="none" fill-rule="evenodd">
        <g>
            <g>
                <path fill="#0C7F00" d="M17.755 3.61c-.04-.285-.27-.498-.545-.502-1.13-.015-2.775-.195-4.594-.964-1.41-.596-2.49-1.362-3.25-2.008-.213-.181-.52-.181-.733 0-.759.646-1.839 1.412-3.25 2.008-1.818.769-3.463.949-4.593.964-.275.004-.505.217-.545.501C-.107 6.105-.778 13.817 4.09 19.932c1.436 1.803 3.026 3.058 4.427 3.929.297.185.666.185.964 0 1.4-.87 2.991-2.125 4.426-3.929 4.87-6.115 4.2-13.827 3.847-16.323z" transform="translate(-1141 -13) translate(1141 13)"/>
                <path fill="#FFF" fill-rule="nonzero" d="M5.028 12.23c-.39-.28-.926-.182-1.199.215-.273.398-.178.946.212 1.224l3.444 2.461c.364.26.862.195 1.15-.15l5.854-7.032c.308-.37.264-.924-.099-1.239-.362-.314-.905-.27-1.213.1L7.83 14.232 5.028 12.23z" transform="translate(-1141 -13) translate(1141 13)"/>
            </g>
        </g>
    </g>
</svg>
