<svg xmlns="http://www.w3.org/2000/svg" width="80" height="80" viewBox="0 0 80 80">
    <g fill="none" fill-rule="evenodd">
        <g fill="#E79218">
            <g>
                <g>
                    <path d="M40 0C18.319 0 0 18.319 0 40s18.319 40 40 40 40-18.319 40-40S61.681 0 40 0zm0 76.19C20.382 76.19 3.81 59.618 3.81 40S20.382 3.81 40 3.81 76.19 20.382 76.19 40 59.618 76.19 40 76.19z" transform="translate(-600 -210) translate(240 210) translate(360)"/>
                    <g stroke="#E79218" stroke-width="1.6">
                        <g>
                            <path d="M2.105 10.586c-.83 0-1.503.58-1.503 1.294v18.105c0 .714.673 1.293 1.503 1.293.83 0 1.504-.58 1.504-1.293V11.88c0-.714-.674-1.294-1.504-1.294h0z" transform="translate(-600 -210) translate(240 210) translate(360) translate(38.4 24.533) matrix(1 0 0 -1 0 32) rotate(-180 2.105 20.932)"/>
                            <path d="M2.105.15C1.275.15.602.824.602 1.654v3.008c0 .83.673 1.503 1.503 1.503.83 0 1.504-.673 1.504-1.503V1.654C3.609.824 2.935.15 2.105.15h0z" transform="translate(-600 -210) translate(240 210) translate(360) translate(38.4 24.533) matrix(1 0 0 -1 0 32) rotate(-180 2.105 3.158)"/>
                        </g>
                    </g>
                </g>
            </g>
        </g>
    </g>
</svg>
